<svg width="24" height="24" viewBox="0 0 24 24" fill="none" xmlns="http://www.w3.org/2000/svg">
<path d="M22.0408 3.43786C23.1077 2.80497 23.1077 1.77885 22.0408 1.14595C20.9739 0.513062 19.2441 0.513062 18.1772 1.14595L1.9318 10.7829C0.864905 11.4158 0.864905 12.4419 1.9318 13.0748C2.9987 13.7077 4.72848 13.7077 5.79537 13.0748L22.0408 3.43786Z" fill="#3A3535"/>
<path d="M5.82283 10.9252C4.75593 10.2923 3.02615 10.2923 1.95925 10.9252C0.892357 11.5581 0.892356 12.5842 1.95925 13.2171L18.2047 22.854C19.2716 23.4869 21.0014 23.4869 22.0682 22.854C23.1351 22.2211 23.1351 21.195 22.0682 20.5621L5.82283 10.9252Z" fill="#3A3535"/>
</svg>
