<svg width="80" height="80" viewBox="0 0 80 80" fill="none" xmlns="http://www.w3.org/2000/svg">
<circle cx="40" cy="40" r="39" fill="#D9D9D9" stroke="#3A3535" stroke-width="2"/>
<path d="M38.5128 58.4972C35.7429 58.4972 33.2867 58.0237 31.1442 57.0767C29.0135 56.1179 27.3326 54.7981 26.1016 53.1172C24.8705 51.4363 24.2431 49.5009 24.2195 47.3111H33.0618C33.0973 48.1042 33.3518 48.8085 33.8253 49.424C34.2988 50.0277 34.9439 50.5012 35.7607 50.8445C36.5774 51.1877 37.5066 51.3594 38.5483 51.3594C39.59 51.3594 40.5073 51.1759 41.3004 50.8089C42.1054 50.4302 42.7327 49.9152 43.1825 49.2642C43.6323 48.6013 43.8513 47.8437 43.8395 46.9915C43.8513 46.1392 43.6087 45.3816 43.1115 44.7188C42.6143 44.0559 41.91 43.541 40.9986 43.174C40.099 42.8071 39.0336 42.6236 37.8026 42.6236H34.2692V36.3736H37.8026C38.8797 36.3736 39.8267 36.196 40.6435 35.8409C41.4721 35.4858 42.1172 34.9886 42.5788 34.3494C43.0405 33.6984 43.2654 32.9527 43.2536 32.1122C43.2654 31.2955 43.0701 30.5793 42.6676 29.9638C42.277 29.3364 41.7266 28.8511 41.0163 28.5078C40.3179 28.1645 39.5071 27.9929 38.5838 27.9929C37.6132 27.9929 36.7313 28.1645 35.9382 28.5078C35.157 28.8511 34.5355 29.3364 34.0739 29.9638C33.6122 30.5911 33.3696 31.3191 33.3459 32.1477H24.9474C24.9711 29.9815 25.5748 28.0758 26.7585 26.4304C27.9422 24.7732 29.5521 23.477 31.5881 22.5419C33.6359 21.6068 35.9678 21.1392 38.5838 21.1392C41.188 21.1392 43.4785 21.5949 45.4553 22.5064C47.4321 23.4178 48.9709 24.6607 50.0717 26.2351C51.1726 27.7976 51.723 29.5672 51.723 31.544C51.7348 33.5919 51.0661 35.2786 49.7166 36.6044C48.379 37.9302 46.6567 38.7469 44.5497 39.0547V39.3388C47.367 39.6702 49.4917 40.5817 50.924 42.0732C52.3681 43.5646 53.0843 45.429 53.0724 47.6662C53.0724 49.7732 52.451 51.6435 51.2081 53.277C49.977 54.8987 48.2607 56.1771 46.0589 57.1122C43.8691 58.0355 41.3537 58.4972 38.5128 58.4972Z" fill="#3A3535"/>
</svg>
