<svg width="80" height="80" viewBox="0 0 80 80" fill="none" xmlns="http://www.w3.org/2000/svg">
<circle cx="40" cy="40" r="40" fill="#3A3535"/>
<g clip-path="url(#clip0_2_4)">
<path d="M27.4266 15.9999C26.8398 15.9981 26.2559 16.0792 25.6943 16.2405C23.0997 16.9912 21.6006 18.091 20.5069 18.8616C18.048 20.5963 16.614 22.8303 13.7459 27.2965C12.0767 29.8977 11.9295 30.4946 12.0213 30.7623C12.0319 30.7921 12.046 30.8206 12.0633 30.8473C12.4905 31.0927 12.9907 31.1994 13.4878 31.1512C14.7421 31.0228 16.9295 29.7041 18.6733 29.1108C19.5815 28.8069 21.8989 27.9169 23.8588 27.6781C24.8033 27.5624 25.7708 27.4285 26.4056 27.4973C26.9582 27.5624 27.3215 27.6637 27.4725 27.6275C39.2813 27.6275 51.0098 27.8084 62.8186 27.8084C63.3922 27.7595 65.4343 27.5208 66.8205 25.9344C68.3119 24.2286 68.027 22.1357 67.8664 20.949C67.7249 19.9107 67.5471 18.5975 66.3979 17.4759C65.0595 16.179 63.3387 16.0288 62.8186 15.9999H27.4266Z" fill="#D9D9D9"/>
<path d="M27.5067 27.5046H35.2849L36.1377 57.243C36.162 57.8957 36.1287 58.5491 36.0382 59.1966C35.9178 60.0178 35.7648 61.512 35.4914 62.9591C35.1358 64.8928 34.4226 66.7922 33.3576 68.2773C32.3155 69.7244 31.1243 71.0087 29.675 71.3705C28.2256 71.7323 26.4971 71.1679 25.7839 70.94C24.4264 70.504 21.696 67.7274 21.8968 64.247C22.1644 59.5982 25.7055 53.8947 25.9235 52.7858C26.2734 51.279 26.8795 49.9875 27.1625 48.2925C27.4455 46.5976 27.675 44.5626 27.8509 42.6849C28.3901 36.9579 27.9484 31.7845 27.5067 27.5046Z" fill="#D9D9D9"/>
<path d="M44.4627 27.5046H53.1817C52.4026 31.5109 51.8815 35.5582 51.6214 39.6243C51.5698 40.4455 51.5258 42.8622 51.4302 47.6992C51.3843 50.1973 51.3748 51.3821 51.6214 52.9957C51.9015 54.8728 52.4256 56.7101 53.1817 58.4658C54.501 60.9006 56.7094 62.6624 58.7801 62.5467C61.2256 62.4092 63.8987 59.6289 64.1664 55.5914C64.1814 55.3972 64.2605 55.2123 64.3926 55.0628C64.5247 54.9134 64.703 54.807 64.9025 54.7586C65.1019 54.7102 65.3124 54.7223 65.5042 54.7932C65.696 54.8641 65.8594 54.9902 65.9713 55.1537C66.3247 55.6783 66.6212 56.2352 66.8566 56.8161C68.9121 61.89 65.4149 66.709 65.021 67.2353C63.8794 68.9752 62.2068 70.3466 60.224 71.1682C58.2413 71.9898 56.0417 72.2231 53.9159 71.8372C53.4111 71.7594 50.5679 71.2945 48.2256 69.406C45.9178 67.5501 44.8165 64.9019 44.0038 59.5077C43.0478 53.135 43.4876 48.155 43.4532 44.5734C43.398 38.8691 43.7352 33.1675 44.4627 27.5046Z" fill="#D9D9D9"/>
</g>
<defs>
<clipPath id="clip0_2_4">
<rect width="56" height="56" fill="white" transform="translate(12 16)"/>
</clipPath>
</defs>
</svg>
