<svg width="80" height="80" viewBox="0 0 80 80" fill="none" xmlns="http://www.w3.org/2000/svg">
<circle cx="40" cy="40" r="39" fill="#D9D9D9" stroke="#3A3535" stroke-width="2"/>
<path d="M26.6811 58V51.679L39.9446 40.0668C40.9389 39.1671 41.7853 38.3445 42.4837 37.5987C43.1821 36.8411 43.7147 36.0836 44.0817 35.326C44.4486 34.5566 44.6321 33.7221 44.6321 32.8224C44.6321 31.8163 44.4131 30.9581 43.9751 30.2479C43.5372 29.5258 42.9335 28.9695 42.1641 28.5788C41.3946 28.1882 40.5128 27.9929 39.5185 27.9929C38.5123 27.9929 37.6304 28.2 36.8729 28.6143C36.1153 29.0168 35.5234 29.6027 35.0973 30.3722C34.683 31.1416 34.4759 32.0767 34.4759 33.1776H26.1484C26.1484 30.7036 26.7048 28.567 27.8175 26.7678C28.9302 24.9685 30.4927 23.5836 32.505 22.6129C34.5291 21.6304 36.8788 21.1392 39.554 21.1392C42.312 21.1392 44.709 21.6009 46.745 22.5241C48.781 23.4474 50.3554 24.7377 51.468 26.3949C52.5926 28.0402 53.1548 29.9519 53.1548 32.13C53.1548 33.5149 52.8767 34.888 52.3203 36.2493C51.764 37.6106 50.7637 39.1139 49.3196 40.7592C47.8873 42.4046 45.8513 44.3755 43.2116 46.6719L38.8615 50.6847V50.9155H53.5987V58H26.6811Z" fill="#3A3535"/>
</svg>
