<svg width="140" height="140" viewBox="0 0 140 140" fill="none" xmlns="http://www.w3.org/2000/svg">
<path d="M38.5661 -8.30426e-05C37.0989 -0.004465 35.6393 0.198253 34.2353 0.601377C27.7487 2.47811 24.0011 5.22764 21.2669 7.15413C15.1197 11.491 11.5346 17.076 4.36441 28.2414C0.191369 34.7444 -0.1767 36.2368 0.0527452 36.906C0.0792495 36.9804 0.114526 37.0517 0.157908 37.1186C1.22584 37.732 2.47625 37.9987 3.71909 37.8783C6.85485 37.5573 12.3233 34.2605 16.6828 32.7772C18.9533 32.0175 24.7468 29.7925 29.6464 29.1956C32.0078 28.9062 34.4265 28.5715 36.0135 28.7434C37.395 28.9062 38.3032 29.1594 38.6808 29.069C68.2028 29.069 97.5241 29.5212 127.046 29.5212C128.48 29.3991 133.585 28.8022 137.051 24.8361C140.779 20.5717 140.067 15.3394 139.666 12.3728C139.312 9.77704 138.867 6.49388 135.994 3.69008C132.648 0.44762 128.346 0.0722731 127.046 -8.30426e-05H38.5661Z" fill="#3A3535"/>
<path d="M38.7667 28.7615H58.2122L60.3442 103.107C60.405 104.739 60.3218 106.373 60.0956 107.991C59.7945 110.045 59.412 113.78 58.7285 117.398C57.8394 122.232 56.0564 126.98 53.3939 130.693C50.7887 134.311 47.8107 137.522 44.1874 138.426C40.5641 139.331 36.2428 137.92 34.4598 137.35C31.066 136.26 24.24 129.318 24.7419 120.618C25.4111 108.995 34.2639 94.7367 34.8088 91.9646C35.6836 88.1976 37.1989 84.9687 37.9063 80.7313C38.6138 76.494 39.1874 71.4064 39.6272 66.7123C40.9751 52.3949 39.8709 39.4612 38.7667 28.7615Z" fill="#3A3535"/>
<path d="M81.1568 28.7615H102.954C101.006 38.7772 99.7038 48.8955 99.0535 59.0607C98.9245 61.1138 98.8145 67.1555 98.5755 79.248C98.4608 85.4933 98.4369 88.4553 99.0535 92.4892C99.7538 97.1821 101.064 101.775 102.954 106.164C106.252 112.251 111.773 116.656 116.95 116.367C123.064 116.023 129.747 109.072 130.416 98.9786C130.453 98.4929 130.651 98.0307 130.981 97.6571C131.312 97.2835 131.758 97.0175 132.256 96.8965C132.755 96.7756 133.281 96.8059 133.76 96.9831C134.24 97.1603 134.648 97.4755 134.928 97.8842C135.812 99.1958 136.553 100.588 137.141 102.04C142.28 114.725 133.537 126.772 132.553 128.088C129.699 132.438 125.517 135.866 120.56 137.921C115.603 139.975 110.104 140.558 104.79 139.593C103.528 139.399 96.4197 138.236 90.5641 133.515C84.7945 128.875 82.0411 122.255 80.0096 108.769C77.6195 92.8374 78.7189 80.3876 78.6329 71.4336C78.495 57.1728 79.3381 42.9187 81.1568 28.7615Z" fill="#3A3535"/>
</svg>
