<svg width="80" height="80" viewBox="0 0 80 80" fill="none" xmlns="http://www.w3.org/2000/svg">
<circle cx="40" cy="40" r="39" fill="#D9D9D9" stroke="#3A3535" stroke-width="2"/>
<path d="M40.8857 58.4972C38.0566 58.4972 35.5294 58.0473 33.304 57.1477C31.0904 56.2363 29.3504 55.0052 28.0838 53.4545C26.8291 51.892 26.2017 50.1283 26.2017 48.1634C26.2017 46.66 26.5627 45.281 27.2848 44.0263C28.0069 42.7715 28.9834 41.7299 30.2145 40.9013C31.4574 40.0608 32.8423 39.5223 34.3693 39.2855V39.0014C32.3688 38.6345 30.7294 37.7053 29.451 36.2138C28.1844 34.7223 27.5511 32.9763 27.5511 30.9759C27.5511 29.0819 28.1252 27.3951 29.2734 25.9155C30.4335 24.4358 32.0137 23.2699 34.0142 22.4176C36.0265 21.5653 38.317 21.1392 40.8857 21.1392C43.4543 21.1392 45.7389 21.5653 47.7393 22.4176C49.7517 23.2699 51.3319 24.4358 52.4801 25.9155C53.6402 27.3951 54.2202 29.0819 54.2202 30.9759C54.2202 32.9882 53.575 34.7401 52.2848 36.2315C51.0064 37.7112 49.3788 38.6345 47.402 39.0014V39.2855C48.9171 39.5223 50.2902 40.0608 51.5213 40.9013C52.7642 41.7299 53.7467 42.7715 54.4688 44.0263C55.2027 45.281 55.5696 46.66 55.5696 48.1634C55.5696 50.1283 54.9363 51.892 53.6697 53.4545C52.4032 55.0052 50.6631 56.2363 48.4496 57.1477C46.2479 58.0473 43.7266 58.4972 40.8857 58.4972ZM40.8857 52.2649C41.9628 52.2649 42.9098 52.0637 43.7266 51.6612C44.5433 51.2469 45.1825 50.6728 45.6442 49.9389C46.1177 49.205 46.3544 48.3764 46.3544 47.4531C46.3544 46.5062 46.1177 45.6657 45.6442 44.9318C45.1707 44.1979 44.5197 43.6238 43.6911 43.2095C42.8743 42.7834 41.9392 42.5703 40.8857 42.5703C39.844 42.5703 38.9089 42.7834 38.0803 43.2095C37.2517 43.6238 36.6006 44.1979 36.1271 44.9318C35.6536 45.6657 35.4169 46.5062 35.4169 47.4531C35.4169 48.3764 35.6477 49.205 36.1094 49.9389C36.5829 50.661 37.228 51.2292 38.0447 51.6435C38.8733 52.0578 39.8203 52.2649 40.8857 52.2649ZM40.8857 36.3736C41.8089 36.3736 42.6257 36.1842 43.3359 35.8054C44.058 35.4266 44.6203 34.8999 45.0227 34.2251C45.437 33.5504 45.6442 32.7869 45.6442 31.9347C45.6442 31.0824 45.437 30.3307 45.0227 29.6797C44.6203 29.0286 44.0639 28.5196 43.3537 28.1527C42.6435 27.7739 41.8208 27.5845 40.8857 27.5845C39.9624 27.5845 39.1397 27.7739 38.4176 28.1527C37.6955 28.5196 37.1333 29.0286 36.7308 29.6797C36.3284 30.3307 36.1271 31.0824 36.1271 31.9347C36.1271 32.7869 36.3284 33.5504 36.7308 34.2251C37.1451 34.888 37.7133 35.4148 38.4354 35.8054C39.1574 36.1842 39.9742 36.3736 40.8857 36.3736Z" fill="#3A3535"/>
</svg>
