<svg width="80" height="80" viewBox="0 0 80 80" fill="none" xmlns="http://www.w3.org/2000/svg">
<circle cx="40" cy="40" r="39" fill="#D9D9D9" stroke="#3A3535" stroke-width="2"/>
<path d="M41.7202 58.8878C38.5478 58.8878 35.8134 58.1361 33.517 56.6328C31.2206 55.1177 29.451 52.9455 28.2081 50.1165C26.9652 47.2756 26.3497 43.8606 26.3615 39.8714C26.3733 35.8823 26.9948 32.4969 28.2259 29.7152C29.4688 26.9216 31.2325 24.7969 33.517 23.3409C35.8134 21.8731 38.5478 21.1392 41.7202 21.1392C44.8925 21.1392 47.6269 21.8731 49.9233 23.3409C52.2315 24.7969 54.0071 26.9216 55.25 29.7152C56.4929 32.5088 57.1084 35.8942 57.0966 39.8714C57.0966 43.8724 56.4751 47.2933 55.2322 50.1342C53.9893 52.9751 52.2197 55.1473 49.9233 56.6506C47.6387 58.142 44.9044 58.8878 41.7202 58.8878ZM41.7202 51.6967C43.6141 51.6967 45.147 50.732 46.3189 48.8026C47.4908 46.8613 48.0708 43.8842 48.0589 39.8714C48.0589 37.2436 47.7926 35.0774 47.2599 33.3729C46.7273 31.6565 45.9875 30.3781 45.0405 29.5376C44.0935 28.6972 42.9867 28.277 41.7202 28.277C39.8381 28.277 38.317 29.2299 37.157 31.1357C35.9969 33.0296 35.411 35.9415 35.3991 39.8714C35.3873 42.5348 35.6418 44.7424 36.1626 46.4943C36.6953 48.2462 37.4411 49.5542 38.3999 50.4183C39.3587 51.2706 40.4654 51.6967 41.7202 51.6967Z" fill="#3A3535"/>
</svg>
