<svg width="80" height="80" viewBox="0 0 80 80" fill="none" xmlns="http://www.w3.org/2000/svg">
<circle cx="40" cy="40" r="39" fill="#D9D9D9" stroke="#3A3535" stroke-width="2"/>
<path d="M38.3707 21.1392C40.3594 21.1392 42.2592 21.4647 44.0703 22.1158C45.8814 22.755 47.4972 23.7789 48.9176 25.1875C50.3381 26.5843 51.4567 28.425 52.2734 30.7095C53.0902 32.9941 53.4986 35.7817 53.4986 39.0724C53.5104 42.1027 53.1553 44.8194 52.4332 47.2223C51.7112 49.6134 50.6754 51.6494 49.326 53.3303C47.9884 55.0111 46.3786 56.2955 44.4964 57.1832C42.6143 58.0592 40.5133 58.4972 38.1932 58.4972C35.6364 58.4972 33.3814 58.0059 31.4283 57.0234C29.487 56.0291 27.9304 54.6915 26.7585 53.0107C25.5985 51.3298 24.906 49.4477 24.6811 47.3643H33.3281C33.6004 48.5717 34.1745 49.4832 35.0504 50.0987C35.9264 50.7024 36.974 51.0043 38.1932 51.0043C40.4186 51.0043 42.0817 50.0395 43.1825 48.1101C44.2834 46.1806 44.8338 43.5587 44.8338 40.2443H44.6207C44.1117 41.3333 43.3897 42.2685 42.4545 43.0497C41.5313 43.831 40.46 44.4287 39.2408 44.843C38.0215 45.2573 36.7372 45.4645 35.3878 45.4645C33.2098 45.4645 31.2862 44.9673 29.6172 43.973C27.96 42.9787 26.6579 41.6115 25.7109 39.8714C24.7758 38.1314 24.3023 36.1428 24.2905 33.9055C24.2786 31.3961 24.8646 29.1825 26.0483 27.2649C27.232 25.3355 28.8833 23.8321 31.0021 22.755C33.121 21.666 35.5772 21.1274 38.3707 21.1392ZM38.424 27.8864C37.335 27.8864 36.3643 28.1409 35.5121 28.6499C34.6716 29.1589 34.0088 29.8454 33.5234 30.7095C33.0381 31.5736 32.8014 32.5443 32.8132 33.6214C32.825 34.6986 33.0677 35.6693 33.5412 36.5334C34.0265 37.3975 34.6835 38.084 35.5121 38.593C36.3525 39.102 37.3113 39.3565 38.3885 39.3565C39.1934 39.3565 39.9392 39.2086 40.6257 38.9126C41.3123 38.6167 41.91 38.2083 42.419 37.6875C42.928 37.1548 43.3246 36.5393 43.6087 35.8409C43.9046 35.1425 44.0466 34.3968 44.0348 33.6037C44.023 32.5502 43.7744 31.5914 43.2891 30.7273C42.8037 29.8632 42.1349 29.1766 41.2827 28.6676C40.4422 28.1468 39.4893 27.8864 38.424 27.8864Z" fill="#3A3535"/>
</svg>
