<svg width="80" height="80" viewBox="0 0 80 80" fill="none" xmlns="http://www.w3.org/2000/svg">
<circle cx="40" cy="40" r="39" fill="#D9D9D9" stroke="#3A3535" stroke-width="2"/>
<path d="M40.6016 58.4972C37.95 58.4972 35.5945 58.0178 33.5348 57.0589C31.4751 56.1001 29.8475 54.7803 28.652 53.0994C27.4683 51.4186 26.8527 49.4891 26.8054 47.3111H35.3281C35.3991 48.6487 35.9437 49.7259 36.9616 50.5426C37.9796 51.3475 39.1929 51.75 40.6016 51.75C41.7024 51.75 42.679 51.5073 43.5312 51.022C44.3835 50.5367 45.0523 49.8561 45.5376 48.9801C46.023 48.0923 46.2597 47.0743 46.2479 45.9261C46.2597 44.7543 46.017 43.7304 45.5199 42.8544C45.0346 41.9785 44.3598 41.2978 43.4957 40.8125C42.6435 40.3153 41.661 40.0668 40.5483 40.0668C39.4948 40.0549 38.4946 40.2857 37.5476 40.7592C36.6125 41.2327 35.9022 41.8778 35.4169 42.6946L27.6577 41.2386L29.2379 21.6364H52.5689V28.7209H36.4645L35.63 37.2969H35.843C36.4467 36.2907 37.4174 35.4621 38.755 34.8111C40.1044 34.1482 41.6373 33.8168 43.3537 33.8168C45.5317 33.8168 47.473 34.3258 49.1776 35.3438C50.8939 36.3499 52.2434 37.7467 53.2259 39.5341C54.2202 41.3215 54.7173 43.3693 54.7173 45.6776C54.7173 48.1752 54.1255 50.3887 52.9418 52.3182C51.7699 54.2476 50.1245 55.7628 48.0057 56.8636C45.8987 57.9527 43.4306 58.4972 40.6016 58.4972Z" fill="#3A3535"/>
</svg>
