<svg width="80" height="80" viewBox="0 0 80 80" fill="none" xmlns="http://www.w3.org/2000/svg">
<circle cx="40" cy="40" r="39" fill="#D9D9D9" stroke="#3A3535" stroke-width="2"/>
<path d="M39.2585 58.4972C37.2699 58.4972 35.3641 58.1776 33.5412 57.5384C31.7183 56.8873 30.0966 55.8575 28.6761 54.4489C27.2557 53.0284 26.1371 51.17 25.3203 48.8736C24.5036 46.5653 24.1011 43.754 24.1129 40.4396C24.1248 37.4448 24.4917 34.7578 25.2138 32.3786C25.9358 29.9875 26.9657 27.9574 28.3033 26.2884C29.6527 24.6193 31.2625 23.3468 33.1328 22.4709C35.0149 21.5831 37.116 21.1392 39.4361 21.1392C41.9811 21.1392 44.2242 21.6364 46.1655 22.6307C48.1186 23.6132 49.6811 24.9389 50.853 26.608C52.0249 28.2652 52.7173 30.1117 52.9304 32.1477H44.2834C44.023 30.9995 43.4489 30.1295 42.5611 29.5376C41.6851 28.9339 40.6435 28.6321 39.4361 28.6321C37.2107 28.6321 35.5476 29.5968 34.4467 31.5263C33.3577 33.4557 32.8014 36.0362 32.7777 39.2678H33.0085C33.5057 38.1787 34.2218 37.2436 35.157 36.4624C36.0921 35.6811 37.1634 35.0833 38.3707 34.669C39.59 34.2429 40.8802 34.0298 42.2415 34.0298C44.4195 34.0298 46.343 34.5329 48.0121 35.5391C49.6811 36.5452 50.9891 37.9242 51.9361 39.6761C52.883 41.4162 53.3506 43.4107 53.3388 45.6598C53.3506 48.1929 52.7588 50.4302 51.5632 52.3714C50.3677 54.3009 48.7105 55.8042 46.5916 56.8814C44.4846 57.9586 42.0402 58.4972 39.2585 58.4972ZM39.2053 51.75C40.2824 51.75 41.2472 51.4955 42.0994 50.9865C42.9517 50.4775 43.6205 49.785 44.1058 48.9091C44.5911 48.0331 44.8279 47.0447 44.8161 45.9439C44.8279 44.8312 44.5911 43.8428 44.1058 42.9787C43.6323 42.1146 42.9695 41.428 42.1172 40.919C41.2768 40.41 40.312 40.1555 39.223 40.1555C38.4299 40.1555 37.6901 40.3035 37.0036 40.5994C36.317 40.8954 35.7192 41.3097 35.2102 41.8423C34.7131 42.3632 34.3224 42.9787 34.0384 43.6889C33.7543 44.3873 33.6063 45.1449 33.5945 45.9616C33.6063 47.0388 33.8549 48.0154 34.3402 48.8913C34.8255 49.7673 35.4884 50.4657 36.3288 50.9865C37.1693 51.4955 38.1281 51.75 39.2053 51.75Z" fill="#3A3535"/>
</svg>
